<?xml version="1.0" encoding="UTF-8"?>
<svg xmlns="http://www.w3.org/2000/svg" xmlns:xlink="http://www.w3.org/1999/xlink" width="32px" height="32px" viewBox="0 0 32 32" version="1.1">
<g id="surface1">
<path style=" stroke:none;fill-rule:nonzero;fill:rgb(0%,0%,0%);fill-opacity:1;" d="M 10.96875 12.453125 C 10.96875 12.484375 11 12.5 11.070312 12.5 C 11.226562 12.5 11.4375 12.621094 11.503906 12.75 C 11.558594 12.851562 11.5625 12.988281 11.5625 15.578125 C 11.5625 18.101562 11.558594 18.304688 11.507812 18.40625 C 11.445312 18.535156 11.230469 18.65625 11.070312 18.65625 C 11.007812 18.65625 10.96875 18.671875 10.96875 18.695312 C 10.96875 18.726562 11.261719 18.734375 12.335938 18.730469 C 13.085938 18.730469 13.78125 18.71875 13.875 18.707031 C 14.644531 18.597656 15.390625 18.210938 15.839844 17.691406 C 16.660156 16.738281 16.84375 15.511719 16.347656 14.34375 C 16.199219 14.003906 16.039062 13.761719 15.765625 13.472656 C 15.234375 12.910156 14.585938 12.574219 13.78125 12.453125 C 13.554688 12.417969 13.175781 12.40625 12.226562 12.40625 C 11.128906 12.40625 10.96875 12.414062 10.96875 12.453125 Z M 13.6875 12.582031 C 14.035156 12.648438 14.234375 12.726562 14.507812 12.902344 C 15.246094 13.386719 15.652344 14.074219 15.785156 15.054688 C 15.835938 15.453125 15.804688 16.320312 15.722656 16.644531 C 15.546875 17.339844 15.195312 17.882812 14.710938 18.207031 C 14.230469 18.527344 13.804688 18.625 12.875 18.625 L 12.25 18.625 L 12.25 12.53125 L 12.839844 12.53125 C 13.242188 12.53125 13.511719 12.546875 13.6875 12.582031 Z M 13.6875 12.582031 "/>
<path style=" stroke:none;fill-rule:nonzero;fill:rgb(0%,0%,0%);fill-opacity:1;" d="M 16.445312 12.441406 C 16.449219 12.460938 16.507812 12.488281 16.566406 12.492188 C 16.738281 12.511719 16.898438 12.621094 16.96875 12.765625 C 17.03125 12.898438 17.03125 12.945312 17.023438 15.628906 L 17.015625 18.359375 L 16.945312 18.457031 C 16.867188 18.566406 16.679688 18.65625 16.53125 18.65625 C 16.464844 18.65625 16.4375 18.671875 16.4375 18.707031 C 16.4375 18.75 16.460938 18.753906 16.554688 18.738281 C 16.617188 18.726562 17.046875 18.71875 17.507812 18.71875 C 17.96875 18.71875 18.34375 18.707031 18.34375 18.691406 C 18.34375 18.679688 18.289062 18.65625 18.21875 18.648438 C 18.050781 18.625 17.878906 18.535156 17.800781 18.429688 C 17.738281 18.34375 17.734375 18.292969 17.726562 17.199219 L 17.714844 16.0625 L 18.480469 16.0625 C 19.308594 16.0625 19.542969 16.035156 19.917969 15.894531 C 20.453125 15.691406 20.824219 15.347656 21.003906 14.882812 C 21.085938 14.65625 21.121094 14.082031 21.0625 13.816406 C 20.921875 13.175781 20.421875 12.699219 19.671875 12.492188 C 19.433594 12.429688 19.351562 12.425781 17.925781 12.414062 C 16.738281 12.40625 16.433594 12.410156 16.445312 12.441406 Z M 19.351562 12.617188 C 19.824219 12.792969 20.175781 13.203125 20.300781 13.742188 C 20.363281 14 20.34375 14.679688 20.269531 14.914062 C 20.097656 15.460938 19.71875 15.8125 19.210938 15.90625 C 19.117188 15.925781 18.746094 15.933594 18.386719 15.929688 L 17.734375 15.921875 L 17.726562 14.226562 L 17.71875 12.523438 L 18.445312 12.539062 C 19.085938 12.550781 19.195312 12.558594 19.351562 12.617188 Z M 19.351562 12.617188 "/>
</g>
</svg>
